<mxfile host="Electron" agent="Mozilla/5.0 (Windows NT 10.0; Win64; x64) AppleWebKit/537.36 (KHTML, like Gecko) draw.io/26.0.9 Chrome/128.0.6613.186 Electron/32.2.5 Safari/537.36" version="26.0.9">
  <diagram name="Page-1" id="aFgxYRswCCA9biTg1z5F">
    <mxGraphModel dx="1422" dy="1029" grid="1" gridSize="10" guides="1" tooltips="1" connect="1" arrows="1" fold="1" page="1" pageScale="1" pageWidth="1100" pageHeight="850" math="0" shadow="0">
      <root>
        <mxCell id="0" />
        <mxCell id="1" parent="0" />
        <mxCell id="SEx9Z7on0BLZeHw71C5W-1" value="&lt;b&gt;BRONZE LAYER&lt;/b&gt;" style="rounded=1;whiteSpace=wrap;html=1;fillColor=#ffe6cc;strokeColor=#d79b00;" parent="1" vertex="1">
          <mxGeometry x="303" y="220" width="230" height="60" as="geometry" />
        </mxCell>
        <mxCell id="SEx9Z7on0BLZeHw71C5W-2" value="" style="rounded=0;whiteSpace=wrap;html=1;dashed=1;fillColor=none;" parent="1" vertex="1">
          <mxGeometry x="58" y="220" width="180" height="500" as="geometry" />
        </mxCell>
        <mxCell id="SEx9Z7on0BLZeHw71C5W-3" value="&lt;font style=&quot;font-size: 24px;&quot;&gt;SOURCES&lt;/font&gt;" style="text;html=1;align=center;verticalAlign=middle;whiteSpace=wrap;rounded=0;dashed=1;strokeColor=none;fillColor=default;" parent="1" vertex="1">
          <mxGeometry x="80.5" y="200" width="135" height="30" as="geometry" />
        </mxCell>
        <mxCell id="SEx9Z7on0BLZeHw71C5W-18" style="edgeStyle=orthogonalEdgeStyle;rounded=0;orthogonalLoop=1;jettySize=auto;html=1;entryX=0;entryY=0.5;entryDx=0;entryDy=0;" parent="1" source="SEx9Z7on0BLZeHw71C5W-5" target="SEx9Z7on0BLZeHw71C5W-10" edge="1">
          <mxGeometry relative="1" as="geometry" />
        </mxCell>
        <mxCell id="SEx9Z7on0BLZeHw71C5W-19" style="edgeStyle=orthogonalEdgeStyle;rounded=0;orthogonalLoop=1;jettySize=auto;html=1;entryX=0;entryY=0.5;entryDx=0;entryDy=0;" parent="1" source="SEx9Z7on0BLZeHw71C5W-5" target="SEx9Z7on0BLZeHw71C5W-11" edge="1">
          <mxGeometry relative="1" as="geometry" />
        </mxCell>
        <mxCell id="SEx9Z7on0BLZeHw71C5W-21" style="edgeStyle=orthogonalEdgeStyle;rounded=0;orthogonalLoop=1;jettySize=auto;html=1;entryX=0;entryY=0.5;entryDx=0;entryDy=0;" parent="1" source="SEx9Z7on0BLZeHw71C5W-5" target="SEx9Z7on0BLZeHw71C5W-12" edge="1">
          <mxGeometry relative="1" as="geometry" />
        </mxCell>
        <mxCell id="SEx9Z7on0BLZeHw71C5W-5" value="&lt;b&gt;CRM&lt;/b&gt;" style="image;aspect=fixed;html=1;points=[];align=center;fontSize=12;image=img/lib/azure2/general/Folder_Blank.svg;" parent="1" vertex="1">
          <mxGeometry x="113.5" y="365" width="69" height="56.00000000000001" as="geometry" />
        </mxCell>
        <mxCell id="SEx9Z7on0BLZeHw71C5W-24" style="edgeStyle=orthogonalEdgeStyle;rounded=0;orthogonalLoop=1;jettySize=auto;html=1;entryX=0;entryY=0.5;entryDx=0;entryDy=0;" parent="1" source="SEx9Z7on0BLZeHw71C5W-6" target="SEx9Z7on0BLZeHw71C5W-14" edge="1">
          <mxGeometry relative="1" as="geometry" />
        </mxCell>
        <mxCell id="SEx9Z7on0BLZeHw71C5W-25" style="edgeStyle=orthogonalEdgeStyle;rounded=0;orthogonalLoop=1;jettySize=auto;html=1;entryX=0;entryY=0.5;entryDx=0;entryDy=0;" parent="1" source="SEx9Z7on0BLZeHw71C5W-6" target="SEx9Z7on0BLZeHw71C5W-15" edge="1">
          <mxGeometry relative="1" as="geometry" />
        </mxCell>
        <mxCell id="SEx9Z7on0BLZeHw71C5W-26" style="edgeStyle=orthogonalEdgeStyle;rounded=0;orthogonalLoop=1;jettySize=auto;html=1;entryX=0;entryY=0.5;entryDx=0;entryDy=0;" parent="1" source="SEx9Z7on0BLZeHw71C5W-6" target="SEx9Z7on0BLZeHw71C5W-13" edge="1">
          <mxGeometry relative="1" as="geometry" />
        </mxCell>
        <mxCell id="SEx9Z7on0BLZeHw71C5W-6" value="&lt;b&gt;ERP&lt;/b&gt;" style="image;aspect=fixed;html=1;points=[];align=center;fontSize=12;image=img/lib/azure2/general/Folder_Blank.svg;" parent="1" vertex="1">
          <mxGeometry x="113.5" y="570" width="69" height="56.00000000000001" as="geometry" />
        </mxCell>
        <mxCell id="SEx9Z7on0BLZeHw71C5W-9" value="" style="rounded=1;whiteSpace=wrap;html=1;fillColor=#ffe6cc;strokeColor=#d79b00;glass=0;shadow=0;fillStyle=hatch;gradientColor=none;" parent="1" vertex="1">
          <mxGeometry x="303" y="290" width="230" height="430" as="geometry" />
        </mxCell>
        <mxCell id="V_hYHSJlJngA1HRwTKV7-9" style="edgeStyle=orthogonalEdgeStyle;rounded=0;orthogonalLoop=1;jettySize=auto;html=1;exitX=1;exitY=0.5;exitDx=0;exitDy=0;" parent="1" source="SEx9Z7on0BLZeHw71C5W-10" target="V_hYHSJlJngA1HRwTKV7-3" edge="1">
          <mxGeometry relative="1" as="geometry" />
        </mxCell>
        <mxCell id="SEx9Z7on0BLZeHw71C5W-10" value="crm_cust_info" style="rounded=1;whiteSpace=wrap;html=1;fillColor=#ffe6cc;strokeColor=#d79b00;" parent="1" vertex="1">
          <mxGeometry x="328" y="308" width="180" height="40" as="geometry" />
        </mxCell>
        <mxCell id="V_hYHSJlJngA1HRwTKV7-10" style="edgeStyle=orthogonalEdgeStyle;rounded=0;orthogonalLoop=1;jettySize=auto;html=1;exitX=1;exitY=0.5;exitDx=0;exitDy=0;entryX=0;entryY=0.5;entryDx=0;entryDy=0;" parent="1" source="SEx9Z7on0BLZeHw71C5W-11" target="V_hYHSJlJngA1HRwTKV7-4" edge="1">
          <mxGeometry relative="1" as="geometry" />
        </mxCell>
        <mxCell id="SEx9Z7on0BLZeHw71C5W-11" value="crm_prd_info" style="rounded=1;whiteSpace=wrap;html=1;fillColor=#ffe6cc;strokeColor=#d79b00;" parent="1" vertex="1">
          <mxGeometry x="328" y="373" width="180" height="40" as="geometry" />
        </mxCell>
        <mxCell id="V_hYHSJlJngA1HRwTKV7-11" style="edgeStyle=orthogonalEdgeStyle;rounded=0;orthogonalLoop=1;jettySize=auto;html=1;exitX=1;exitY=0.5;exitDx=0;exitDy=0;entryX=0;entryY=0.5;entryDx=0;entryDy=0;" parent="1" source="SEx9Z7on0BLZeHw71C5W-12" target="V_hYHSJlJngA1HRwTKV7-5" edge="1">
          <mxGeometry relative="1" as="geometry" />
        </mxCell>
        <mxCell id="SEx9Z7on0BLZeHw71C5W-12" value="crm_sales_details" style="rounded=1;whiteSpace=wrap;html=1;fillColor=#ffe6cc;strokeColor=#d79b00;" parent="1" vertex="1">
          <mxGeometry x="328" y="438" width="180" height="40" as="geometry" />
        </mxCell>
        <mxCell id="V_hYHSJlJngA1HRwTKV7-12" style="edgeStyle=orthogonalEdgeStyle;rounded=0;orthogonalLoop=1;jettySize=auto;html=1;exitX=1;exitY=0.5;exitDx=0;exitDy=0;entryX=0;entryY=0.5;entryDx=0;entryDy=0;" parent="1" source="SEx9Z7on0BLZeHw71C5W-13" target="V_hYHSJlJngA1HRwTKV7-6" edge="1">
          <mxGeometry relative="1" as="geometry" />
        </mxCell>
        <mxCell id="SEx9Z7on0BLZeHw71C5W-13" value="erp_cust_az12" style="rounded=1;whiteSpace=wrap;html=1;fillColor=#ffe6cc;strokeColor=#d79b00;" parent="1" vertex="1">
          <mxGeometry x="328" y="510" width="180" height="42" as="geometry" />
        </mxCell>
        <mxCell id="V_hYHSJlJngA1HRwTKV7-13" style="edgeStyle=orthogonalEdgeStyle;rounded=0;orthogonalLoop=1;jettySize=auto;html=1;exitX=1;exitY=0.5;exitDx=0;exitDy=0;entryX=0;entryY=0.5;entryDx=0;entryDy=0;" parent="1" source="SEx9Z7on0BLZeHw71C5W-14" target="V_hYHSJlJngA1HRwTKV7-7" edge="1">
          <mxGeometry relative="1" as="geometry" />
        </mxCell>
        <mxCell id="SEx9Z7on0BLZeHw71C5W-14" value="erp_loc_a101" style="rounded=1;whiteSpace=wrap;html=1;fillColor=#ffe6cc;strokeColor=#d79b00;" parent="1" vertex="1">
          <mxGeometry x="328" y="578" width="180" height="40" as="geometry" />
        </mxCell>
        <mxCell id="V_hYHSJlJngA1HRwTKV7-14" style="edgeStyle=orthogonalEdgeStyle;rounded=0;orthogonalLoop=1;jettySize=auto;html=1;exitX=1;exitY=0.5;exitDx=0;exitDy=0;entryX=0;entryY=0.5;entryDx=0;entryDy=0;" parent="1" source="SEx9Z7on0BLZeHw71C5W-15" target="V_hYHSJlJngA1HRwTKV7-8" edge="1">
          <mxGeometry relative="1" as="geometry" />
        </mxCell>
        <mxCell id="SEx9Z7on0BLZeHw71C5W-15" value="erp_px_cat_g1v2" style="rounded=1;whiteSpace=wrap;html=1;fillColor=#ffe6cc;strokeColor=#d79b00;" parent="1" vertex="1">
          <mxGeometry x="328" y="648" width="180" height="40" as="geometry" />
        </mxCell>
        <mxCell id="V_hYHSJlJngA1HRwTKV7-1" value="&lt;b&gt;SILVER LAYER&lt;/b&gt;" style="rounded=1;whiteSpace=wrap;html=1;fillColor=#eeeeee;strokeColor=#36393d;" parent="1" vertex="1">
          <mxGeometry x="563" y="220" width="230" height="60" as="geometry" />
        </mxCell>
        <mxCell id="V_hYHSJlJngA1HRwTKV7-2" value="" style="rounded=1;whiteSpace=wrap;html=1;fillColor=#EEEEEE;strokeColor=#36393d;glass=0;shadow=0;fillStyle=hatch;gradientColor=none;" parent="1" vertex="1">
          <mxGeometry x="563" y="290" width="230" height="430" as="geometry" />
        </mxCell>
        <mxCell id="V_hYHSJlJngA1HRwTKV7-3" value="crm_cust_info" style="rounded=1;whiteSpace=wrap;html=1;fillColor=#eeeeee;strokeColor=#36393d;" parent="1" vertex="1">
          <mxGeometry x="588" y="308" width="180" height="40" as="geometry" />
        </mxCell>
        <mxCell id="V_hYHSJlJngA1HRwTKV7-4" value="crm_prd_info" style="rounded=1;whiteSpace=wrap;html=1;fillColor=#eeeeee;strokeColor=#36393d;" parent="1" vertex="1">
          <mxGeometry x="588" y="373" width="180" height="40" as="geometry" />
        </mxCell>
        <mxCell id="V_hYHSJlJngA1HRwTKV7-5" value="crm_sales_details" style="rounded=1;whiteSpace=wrap;html=1;fillColor=#eeeeee;strokeColor=#36393d;" parent="1" vertex="1">
          <mxGeometry x="588" y="438" width="180" height="40" as="geometry" />
        </mxCell>
        <mxCell id="V_hYHSJlJngA1HRwTKV7-6" value="erp_cust_az12" style="rounded=1;whiteSpace=wrap;html=1;fillColor=#eeeeee;strokeColor=#36393d;" parent="1" vertex="1">
          <mxGeometry x="588" y="510" width="180" height="42" as="geometry" />
        </mxCell>
        <mxCell id="V_hYHSJlJngA1HRwTKV7-7" value="erp_loc_a101" style="rounded=1;whiteSpace=wrap;html=1;fillColor=#eeeeee;strokeColor=#36393d;" parent="1" vertex="1">
          <mxGeometry x="588" y="578" width="180" height="40" as="geometry" />
        </mxCell>
        <mxCell id="V_hYHSJlJngA1HRwTKV7-8" value="erp_px_cat_g1v2" style="rounded=1;whiteSpace=wrap;html=1;fillColor=#eeeeee;strokeColor=#36393d;" parent="1" vertex="1">
          <mxGeometry x="588" y="648" width="180" height="40" as="geometry" />
        </mxCell>
        <mxCell id="yfiTuYcOX8bTTWQ1ZlIi-1" value="&lt;b&gt;GOLD LAYER&lt;/b&gt;" style="rounded=1;whiteSpace=wrap;html=1;fillColor=#fff2cc;strokeColor=#d6b656;" vertex="1" parent="1">
          <mxGeometry x="822.3" y="220" width="217" height="60" as="geometry" />
        </mxCell>
        <mxCell id="yfiTuYcOX8bTTWQ1ZlIi-2" value="" style="rounded=1;whiteSpace=wrap;html=1;fillColor=#fff2cc;strokeColor=#d6b656;glass=0;shadow=0;fillStyle=hatch;" vertex="1" parent="1">
          <mxGeometry x="820" y="288" width="219.3" height="432" as="geometry" />
        </mxCell>
        <mxCell id="yfiTuYcOX8bTTWQ1ZlIi-3" value="fact_sales" style="rounded=1;whiteSpace=wrap;html=1;fillColor=#fff2cc;strokeColor=#d6b656;" vertex="1" parent="1">
          <mxGeometry x="838" y="398" width="180" height="40" as="geometry" />
        </mxCell>
        <mxCell id="yfiTuYcOX8bTTWQ1ZlIi-4" value="dim_customers" style="rounded=1;whiteSpace=wrap;html=1;fillColor=#fff2cc;strokeColor=#d6b656;" vertex="1" parent="1">
          <mxGeometry x="838" y="463" width="180" height="40" as="geometry" />
        </mxCell>
        <mxCell id="yfiTuYcOX8bTTWQ1ZlIi-5" value="dim_products" style="rounded=1;whiteSpace=wrap;html=1;fillColor=#fff2cc;strokeColor=#d6b656;" vertex="1" parent="1">
          <mxGeometry x="838" y="528" width="180" height="40" as="geometry" />
        </mxCell>
        <mxCell id="yfiTuYcOX8bTTWQ1ZlIi-18" value="" style="endArrow=classic;html=1;rounded=0;exitX=1;exitY=0.5;exitDx=0;exitDy=0;entryX=0;entryY=0.25;entryDx=0;entryDy=0;jumpStyle=gap;" edge="1" parent="1" source="V_hYHSJlJngA1HRwTKV7-3" target="yfiTuYcOX8bTTWQ1ZlIi-3">
          <mxGeometry width="50" height="50" relative="1" as="geometry">
            <mxPoint x="663" y="470" as="sourcePoint" />
            <mxPoint x="713" y="420" as="targetPoint" />
          </mxGeometry>
        </mxCell>
        <mxCell id="yfiTuYcOX8bTTWQ1ZlIi-19" value="" style="endArrow=classic;html=1;rounded=0;exitX=1;exitY=0.5;exitDx=0;exitDy=0;entryX=0;entryY=0.25;entryDx=0;entryDy=0;jumpStyle=gap;" edge="1" parent="1" source="V_hYHSJlJngA1HRwTKV7-3" target="yfiTuYcOX8bTTWQ1ZlIi-4">
          <mxGeometry width="50" height="50" relative="1" as="geometry">
            <mxPoint x="878" y="338" as="sourcePoint" />
            <mxPoint x="1008" y="430" as="targetPoint" />
          </mxGeometry>
        </mxCell>
        <mxCell id="yfiTuYcOX8bTTWQ1ZlIi-20" value="" style="endArrow=classic;html=1;rounded=0;exitX=1;exitY=0.5;exitDx=0;exitDy=0;entryX=0;entryY=0.25;entryDx=0;entryDy=0;jumpStyle=gap;" edge="1" parent="1" source="V_hYHSJlJngA1HRwTKV7-4" target="yfiTuYcOX8bTTWQ1ZlIi-5">
          <mxGeometry width="50" height="50" relative="1" as="geometry">
            <mxPoint x="893" y="400" as="sourcePoint" />
            <mxPoint x="1023" y="557" as="targetPoint" />
          </mxGeometry>
        </mxCell>
        <mxCell id="yfiTuYcOX8bTTWQ1ZlIi-21" value="" style="endArrow=classic;html=1;rounded=0;exitX=1;exitY=0.5;exitDx=0;exitDy=0;entryX=0;entryY=0.5;entryDx=0;entryDy=0;jumpStyle=gap;" edge="1" parent="1" source="V_hYHSJlJngA1HRwTKV7-4" target="yfiTuYcOX8bTTWQ1ZlIi-3">
          <mxGeometry width="50" height="50" relative="1" as="geometry">
            <mxPoint x="878" y="403" as="sourcePoint" />
            <mxPoint x="1008" y="560" as="targetPoint" />
          </mxGeometry>
        </mxCell>
        <mxCell id="yfiTuYcOX8bTTWQ1ZlIi-23" value="" style="endArrow=classic;html=1;rounded=0;exitX=1;exitY=0.5;exitDx=0;exitDy=0;entryX=0;entryY=0.75;entryDx=0;entryDy=0;jumpStyle=gap;" edge="1" parent="1" source="V_hYHSJlJngA1HRwTKV7-5" target="yfiTuYcOX8bTTWQ1ZlIi-3">
          <mxGeometry width="50" height="50" relative="1" as="geometry">
            <mxPoint x="878" y="403" as="sourcePoint" />
            <mxPoint x="1008" y="560" as="targetPoint" />
          </mxGeometry>
        </mxCell>
        <mxCell id="yfiTuYcOX8bTTWQ1ZlIi-24" value="" style="endArrow=classic;html=1;rounded=0;exitX=1;exitY=0.5;exitDx=0;exitDy=0;entryX=0;entryY=0.5;entryDx=0;entryDy=0;jumpStyle=gap;" edge="1" parent="1" source="V_hYHSJlJngA1HRwTKV7-6" target="yfiTuYcOX8bTTWQ1ZlIi-4">
          <mxGeometry width="50" height="50" relative="1" as="geometry">
            <mxPoint x="893" y="510" as="sourcePoint" />
            <mxPoint x="1023" y="667" as="targetPoint" />
          </mxGeometry>
        </mxCell>
        <mxCell id="yfiTuYcOX8bTTWQ1ZlIi-25" value="" style="endArrow=classic;html=1;rounded=0;exitX=1;exitY=0.5;exitDx=0;exitDy=0;entryX=0;entryY=0.75;entryDx=0;entryDy=0;jumpStyle=gap;" edge="1" parent="1" source="V_hYHSJlJngA1HRwTKV7-7" target="yfiTuYcOX8bTTWQ1ZlIi-4">
          <mxGeometry width="50" height="50" relative="1" as="geometry">
            <mxPoint x="893" y="598" as="sourcePoint" />
            <mxPoint x="1023" y="552" as="targetPoint" />
          </mxGeometry>
        </mxCell>
        <mxCell id="yfiTuYcOX8bTTWQ1ZlIi-26" value="" style="endArrow=classic;html=1;rounded=0;exitX=1;exitY=0.5;exitDx=0;exitDy=0;entryX=0;entryY=0.75;entryDx=0;entryDy=0;jumpStyle=gap;" edge="1" parent="1" source="V_hYHSJlJngA1HRwTKV7-8" target="yfiTuYcOX8bTTWQ1ZlIi-5">
          <mxGeometry width="50" height="50" relative="1" as="geometry">
            <mxPoint x="868" y="665" as="sourcePoint" />
            <mxPoint x="998" y="552" as="targetPoint" />
          </mxGeometry>
        </mxCell>
        <mxCell id="yfiTuYcOX8bTTWQ1ZlIi-27" value="&lt;font style=&quot;font-size: 32px;&quot;&gt;&lt;b&gt;Data Flow&lt;/b&gt;&lt;/font&gt;" style="text;html=1;align=center;verticalAlign=middle;whiteSpace=wrap;rounded=0;" vertex="1" parent="1">
          <mxGeometry x="58" y="50" width="172" height="30" as="geometry" />
        </mxCell>
      </root>
    </mxGraphModel>
  </diagram>
</mxfile>
